<svg xmlns="http://www.w3.org/2000/svg" viewBox="0 0 405.07 391.92"><defs><style>.cls-1,.cls-18{fill:#fbbf24;}.cls-10,.cls-15,.cls-2,.cls-5,.cls-6{fill:#fff;}.cls-2{opacity:0.8;}.cls-14,.cls-17,.cls-3,.cls-7,.cls-9{fill:none;}.cls-15,.cls-16,.cls-18,.cls-3{stroke:#263238;}.cls-10,.cls-14,.cls-15,.cls-16,.cls-17,.cls-18,.cls-3,.cls-9{stroke-linecap:round;}.cls-10,.cls-14,.cls-15,.cls-16,.cls-17,.cls-18,.cls-3{stroke-linejoin:round;}.cls-16,.cls-4{fill:#263238;}.cls-5{opacity:0.5;}.cls-7{stroke:#8c8c8c;stroke-width:0.5px;}.cls-7,.cls-9{stroke-miterlimit:10;}.cls-8{fill:#a2a2a2;}.cls-10,.cls-9{stroke:#fbbf24;}.cls-9{stroke-width:2px;}.cls-11{fill:#dbdbdb;}.cls-12{fill:#878787;}.cls-13{fill:#ededed;}.cls-14{stroke:#000;}.cls-17{stroke:#fff;}</style></defs><title>Asset 1</title><g id="Layer_2" data-name="Layer 2"><g id="Character"><path class="cls-1" d="M337.84,26.76s-44-38-103-23.41-85,64.39-119.53,98.12c-18.1,17.66-44.27,23.62-65.56,37-68.07,42.8-61,143.57-10.59,183,43.66,34.08,99.29,39.1,172.5,16.95S337.17,303.15,384.11,235.1,391.89,78.24,337.84,26.76Z"/><path class="cls-2" d="M337.84,26.76s-44-38-103-23.41-85,64.39-119.53,98.12c-18.1,17.66-44.27,23.62-65.56,37-68.07,42.8-61,143.57-10.59,183,43.66,34.08,99.29,39.1,172.5,16.95S337.17,303.15,384.11,235.1,391.89,78.24,337.84,26.76Z"/><path class="cls-1" d="M69.93,150.46s0-5.12-7.17-12.29S51,126.9,51,126.9s-3.58,11.78,3.08,18.95a126.16,126.16,0,0,0,15.88,13.83Z"/><path class="cls-1" d="M59.52,182.45s0-5.12-7.17-12.29-11.78-11.27-11.78-11.27-3.59,11.78,3.07,19a126.16,126.16,0,0,0,15.88,13.83Z"/><path class="cls-1" d="M69.48,159.19s.54-5.1,8.43-11.47,12.9-10,12.9-10,2.32,12.09-5.06,18.52A126.08,126.08,0,0,1,68.5,168.36Z"/><path class="cls-1" d="M56.9,197s1.08-5,9.59-10.52,13.88-8.55,13.88-8.55,1,12.27-7,17.89A126.66,126.66,0,0,1,55,206Z"/><path class="cls-1" d="M59.27,238.16s0-5.13,7.17-12.3,11.78-11.27,11.78-11.27,3.58,11.79-3.07,19a126.16,126.16,0,0,1-15.88,13.83Z"/><path class="cls-1" d="M59.15,248.21s.72-5.07-5.35-13.19-10.07-12.83-10.07-12.83-5.22,11.16.35,19.2a126.18,126.18,0,0,0,13.76,15.95Z"/><path class="cls-1" d="M52.08,278s0-5.12,7.17-12.3S71,254.45,71,254.45,74.61,266.23,68,273.4a125.65,125.65,0,0,1-15.87,13.83Z"/><path class="cls-1" d="M56.86,305s-1.29-4.95,3.83-13.71,8.54-13.88,8.54-13.88,6.45,10.49,1.83,19.11a125.9,125.9,0,0,1-11.86,17.4Z"/><path class="cls-3" d="M70.58,149.15a146.61,146.61,0,0,1-2,15.9c-2.83,14.65-9.92,24.1-12.75,37.33s5.3,30.27,3.12,47.26-8.79,26.44-6.9,37.78,11.81,42.05,11.81,42.05"/><line class="cls-3" x1="69.4" y1="162.59" x2="77.13" y2="156.66"/><line class="cls-3" x1="69.76" y1="155.76" x2="66.53" y2="150.01"/><path class="cls-3" d="M56.28,201.77s6.48-4.85,13.12-9.7"/><path class="cls-3" d="M59.52,191.67S54.13,181.1,48,174.09"/><path class="cls-3" d="M59.52,245.44a80,80,0,0,1,13.84-18.51"/><path class="cls-3" d="M58.26,252.63a89.82,89.82,0,0,0-7-13.3c-3.77-5.57-4.31-6.29-4.31-6.29"/><path class="cls-3" d="M52.08,287.42a86.12,86.12,0,0,1,5.82-11.78,76.27,76.27,0,0,1,7.55-9.89"/><path class="cls-3" d="M59.2,313.94a21.9,21.9,0,0,1,1.94-11.34c2.69-5.22,5.75-12,7-14.74"/><path class="cls-1" d="M23,218.89s-.56-3.21,3.16-8.48,6.16-8.35,6.16-8.35,3.53,7,.13,12.22A79.43,79.43,0,0,1,24,224.67Z"/><path class="cls-1" d="M33,237.82s-.56-3.21,3.16-8.48S42.29,221,42.29,221s3.53,7,.13,12.22A79.88,79.88,0,0,1,34,243.61Z"/><path class="cls-1" d="M24.2,224.31s-.9-3.13-6.53-6.27-9.18-4.85-9.18-4.85-.14,7.84,5.18,11.07A80.39,80.39,0,0,0,25.8,230Z"/><path class="cls-1" d="M36.18,246.64s-1.21-3-7.15-5.55-9.63-3.86-9.63-3.86.68,7.81,6.31,10.46a80.42,80.42,0,0,0,12.66,4.39Z"/><path class="cls-1" d="M39.17,272.73s-.55-3.21-5.83-6.93S24.73,260,24.73,260s-1,7.78,4,11.55a81,81,0,0,0,11.46,6.95Z"/><path class="cls-1" d="M40.34,279s-1-3.1,1.92-8.85S47.18,261,47.18,261s4.48,6.43,1.86,12.08a80.07,80.07,0,0,1-6.89,11.49Z"/><path class="cls-1" d="M49.34,304.93s.37-3.24,5.43-7.25S63,291.41,63,291.41s1.41,7.71-3.32,11.76a80.2,80.2,0,0,1-11,7.59Z"/><path class="cls-1" d="M48,296.94s-.56-3.22-5.83-6.93-8.62-5.79-8.62-5.79-1,7.78,4,11.55a80.41,80.41,0,0,0,11.46,7Z"/><path class="cls-1" d="M47.94,314.4s.27-3.25-3.89-8.18-6.86-7.78-6.86-7.78-2.91,7.27.93,12.18a79.2,79.2,0,0,0,9.32,9.62Z"/><path class="cls-3" d="M22.42,218.14a90.2,90.2,0,0,0,3,9.76c3.36,8.88,8.83,14,12.05,22s0,19.56,3.17,30S49,295.52,49,302.84s-2.84,27.65-2.84,27.65"/><line class="cls-3" x1="24.61" y1="226.44" x2="19.12" y2="223.56"/><line class="cls-3" x1="23.64" y1="222.2" x2="25.05" y2="218.24"/><path class="cls-3" d="M37.09,249.59s-4.58-2.34-9.28-4.66"/><path class="cls-3" d="M34,243.61a65.56,65.56,0,0,1,5.3-12.28"/><path class="cls-3" d="M39.8,277.32a51,51,0,0,0-10.68-10.1"/><path class="cls-3" d="M41.37,281.7a57.61,57.61,0,0,1,3-9.1c1.77-3.91,2-4.42,2-4.42"/><path class="cls-3" d="M48.78,308.39a48.35,48.35,0,0,1,5.9-6.13,31.68,31.68,0,0,0,3.84-3.33"/><path class="cls-3" d="M49,302.84a55.2,55.2,0,0,0-4.93-6.76,49.11,49.11,0,0,0-5.81-5.38"/><path class="cls-3" d="M47.44,320.24a14,14,0,0,0-2.45-6.9c-2.25-3-4.91-6.93-6-8.48"/><path class="cls-4" d="M71.32,365.52H38.66a2.43,2.43,0,0,1-2.43-2.43l-4.69-36.15H78.45l-4.69,36.15A2.43,2.43,0,0,1,71.32,365.52Z"/><path class="cls-4" d="M78,333.06H31.54a3.67,3.67,0,0,1-3.67-3.67h0a3.67,3.67,0,0,1,3.67-3.67H78a3.67,3.67,0,0,1,3.67,3.67h0A3.67,3.67,0,0,1,78,333.06Z"/><rect class="cls-1" x="64.93" y="27.95" width="302.79" height="250.89"/><rect class="cls-5" x="64.93" y="27.95" width="302.79" height="250.89"/><rect class="cls-6" x="117.85" y="68.28" width="248.06" height="207.23"/><line class="cls-7" x1="185.61" y1="256.86" x2="358.42" y2="256.86"/><line class="cls-7" x1="185.61" y1="256.86" x2="185.61" y2="255.28"/><line class="cls-7" x1="358.42" y1="256.86" x2="358.42" y2="255.28"/><line class="cls-7" x1="194.13" y1="256.86" x2="194.13" y2="193.75"/><line class="cls-7" x1="194.13" y1="256.86" x2="198.45" y2="256.86"/><line class="cls-7" x1="194.13" y1="248.97" x2="198.45" y2="248.97"/><line class="cls-7" x1="194.13" y1="241.08" x2="198.45" y2="241.08"/><line class="cls-7" x1="194.13" y1="233.19" x2="198.45" y2="233.19"/><line class="cls-7" x1="194.13" y1="225.3" x2="198.45" y2="225.3"/><line class="cls-7" x1="194.13" y1="217.42" x2="198.45" y2="217.42"/><line class="cls-7" x1="194.13" y1="209.53" x2="198.45" y2="209.53"/><line class="cls-7" x1="194.13" y1="201.64" x2="198.45" y2="201.64"/><line class="cls-7" x1="194.13" y1="193.75" x2="198.45" y2="193.75"/><rect class="cls-8" x="331.04" y="209.53" width="9.57" height="47.34"/><rect class="cls-1" x="320.4" y="245.03" width="9.57" height="11.83"/><rect class="cls-8" x="309.77" y="242.66" width="9.57" height="14.2"/><rect class="cls-1" x="299.13" y="217.42" width="9.57" height="39.45"/><rect class="cls-8" x="288.5" y="233.19" width="9.57" height="23.67"/><rect class="cls-1" x="277.87" y="237.14" width="9.57" height="19.72"/><rect class="cls-8" x="267.23" y="241.08" width="9.57" height="15.78"/><rect class="cls-1" x="256.6" y="201.64" width="9.57" height="55.22"/><rect class="cls-8" x="245.96" y="248.97" width="9.57" height="7.89"/><rect class="cls-1" x="235.33" y="233.19" width="9.57" height="23.67"/><rect class="cls-8" x="224.69" y="217.42" width="9.57" height="39.45"/><rect class="cls-1" x="214.06" y="225.3" width="9.57" height="31.56"/><rect class="cls-8" x="203.43" y="241.08" width="9.57" height="15.78"/><line class="cls-7" x1="125.58" y1="163.45" x2="353.06" y2="163.45"/><line class="cls-7" x1="125.58" y1="163.45" x2="125.58" y2="161.22"/><line class="cls-7" x1="137.56" y1="163.45" x2="137.56" y2="161.22"/><line class="cls-7" x1="149.53" y1="163.45" x2="149.53" y2="161.22"/><line class="cls-7" x1="161.5" y1="163.45" x2="161.5" y2="161.22"/><line class="cls-7" x1="173.47" y1="163.45" x2="173.47" y2="161.22"/><line class="cls-7" x1="185.45" y1="163.45" x2="185.45" y2="161.22"/><line class="cls-7" x1="197.42" y1="163.45" x2="197.42" y2="161.22"/><line class="cls-7" x1="209.39" y1="163.45" x2="209.39" y2="161.22"/><line class="cls-7" x1="221.36" y1="163.45" x2="221.36" y2="161.22"/><line class="cls-7" x1="233.34" y1="163.45" x2="233.34" y2="161.22"/><line class="cls-7" x1="245.31" y1="163.45" x2="245.31" y2="161.22"/><line class="cls-7" x1="257.28" y1="163.45" x2="257.28" y2="161.22"/><line class="cls-7" x1="269.26" y1="163.45" x2="269.26" y2="161.22"/><line class="cls-7" x1="281.23" y1="163.45" x2="281.23" y2="161.22"/><line class="cls-7" x1="293.2" y1="163.45" x2="293.2" y2="161.22"/><line class="cls-7" x1="305.17" y1="163.45" x2="305.17" y2="161.22"/><line class="cls-7" x1="317.15" y1="163.45" x2="317.15" y2="161.22"/><line class="cls-7" x1="329.12" y1="163.45" x2="329.12" y2="161.22"/><line class="cls-7" x1="341.09" y1="163.45" x2="341.09" y2="161.22"/><line class="cls-7" x1="353.06" y1="163.45" x2="353.06" y2="161.22"/><line class="cls-7" x1="125.58" y1="163.45" x2="125.58" y2="74.23"/><line class="cls-7" x1="125.58" y1="163.45" x2="131.27" y2="163.45"/><line class="cls-7" x1="125.58" y1="145.61" x2="131.27" y2="145.61"/><line class="cls-7" x1="125.58" y1="127.76" x2="131.27" y2="127.76"/><line class="cls-7" x1="125.58" y1="109.92" x2="131.27" y2="109.92"/><line class="cls-7" x1="125.58" y1="92.07" x2="131.27" y2="92.07"/><line class="cls-7" x1="125.58" y1="74.23" x2="131.27" y2="74.23"/><line class="cls-9" x1="143.54" y1="92.07" x2="131.57" y2="145.61"/><line class="cls-9" x1="155.51" y1="122.41" x2="143.54" y2="92.07"/><line class="cls-9" x1="167.49" y1="109.92" x2="155.51" y2="122.41"/><line class="cls-9" x1="179.46" y1="142.04" x2="167.49" y2="109.92"/><line class="cls-9" x1="191.43" y1="92.07" x2="179.46" y2="142.04"/><line class="cls-9" x1="203.41" y1="74.23" x2="191.43" y2="92.07"/><line class="cls-9" x1="215.38" y1="154.53" x2="203.41" y2="74.23"/><line class="cls-9" x1="227.35" y1="149.18" x2="215.38" y2="154.53"/><line class="cls-9" x1="239.32" y1="147.39" x2="227.35" y2="149.18"/><line class="cls-9" x1="251.3" y1="142.04" x2="239.32" y2="147.39"/><line class="cls-9" x1="263.27" y1="134.9" x2="251.3" y2="142.04"/><line class="cls-9" x1="275.24" y1="138.47" x2="263.27" y2="134.9"/><line class="cls-9" x1="287.21" y1="145.61" x2="275.24" y2="138.47"/><line class="cls-9" x1="299.19" y1="108.13" x2="287.21" y2="145.61"/><line class="cls-9" x1="311.16" y1="102.78" x2="299.19" y2="108.13"/><line class="cls-9" x1="323.13" y1="95.64" x2="311.16" y2="102.78"/><line class="cls-9" x1="335.11" y1="102.78" x2="323.13" y2="95.64"/><line class="cls-9" x1="347.08" y1="109.92" x2="335.11" y2="102.78"/><path class="cls-10" d="M131.57,143.49h0a2.12,2.12,0,0,1,2.12,2.12h0a2.12,2.12,0,0,1-2.12,2.12h0a2.12,2.12,0,0,1-2.12-2.12h0A2.12,2.12,0,0,1,131.57,143.49Z"/><path class="cls-10" d="M143.54,90h0a2.11,2.11,0,0,1,2.12,2.11h0a2.12,2.12,0,0,1-2.12,2.12h0a2.11,2.11,0,0,1-2.11-2.12h0A2.1,2.1,0,0,1,143.54,90Z"/><path class="cls-10" d="M155.51,120.29h0a2.12,2.12,0,0,1,2.12,2.12h0a2.12,2.12,0,0,1-2.12,2.12h0a2.12,2.12,0,0,1-2.11-2.12h0A2.12,2.12,0,0,1,155.51,120.29Z"/><path class="cls-10" d="M167.49,107.8h0a2.11,2.11,0,0,1,2.11,2.12h0a2.1,2.1,0,0,1-2.11,2.11h0a2.11,2.11,0,0,1-2.12-2.11h0A2.12,2.12,0,0,1,167.49,107.8Z"/><path class="cls-10" d="M179.46,139.92h0a2.12,2.12,0,0,1,2.12,2.12h0a2.12,2.12,0,0,1-2.12,2.12h0a2.12,2.12,0,0,1-2.12-2.12h0A2.12,2.12,0,0,1,179.46,139.92Z"/><path class="cls-10" d="M191.43,90h0a2.11,2.11,0,0,1,2.12,2.11h0a2.12,2.12,0,0,1-2.12,2.12h0a2.11,2.11,0,0,1-2.11-2.12h0A2.1,2.1,0,0,1,191.43,90Z"/><path class="cls-10" d="M203.41,72.11h0a2.12,2.12,0,0,1,2.11,2.12h0a2.12,2.12,0,0,1-2.11,2.11h0a2.12,2.12,0,0,1-2.12-2.11h0A2.12,2.12,0,0,1,203.41,72.11Z"/><path class="cls-10" d="M215.38,152.42h0a2.1,2.1,0,0,1,2.11,2.11h0a2.11,2.11,0,0,1-2.11,2.12h0a2.12,2.12,0,0,1-2.12-2.12h0A2.11,2.11,0,0,1,215.38,152.42Z"/><path class="cls-10" d="M227.35,147.06h0a2.12,2.12,0,0,1,2.12,2.12h0a2.11,2.11,0,0,1-2.12,2.11h0a2.11,2.11,0,0,1-2.12-2.11h0A2.12,2.12,0,0,1,227.35,147.06Z"/><path class="cls-10" d="M239.32,145.28h0a2.11,2.11,0,0,1,2.12,2.11h0a2.12,2.12,0,0,1-2.12,2.12h0a2.12,2.12,0,0,1-2.11-2.12h0A2.11,2.11,0,0,1,239.32,145.28Z"/><path class="cls-10" d="M251.3,139.92h0a2.11,2.11,0,0,1,2.11,2.12h0a2.11,2.11,0,0,1-2.11,2.12h0a2.12,2.12,0,0,1-2.12-2.12h0A2.12,2.12,0,0,1,251.3,139.92Z"/><path class="cls-10" d="M263.27,132.79h0a2.11,2.11,0,0,1,2.12,2.11h0a2.12,2.12,0,0,1-2.12,2.12h0a2.12,2.12,0,0,1-2.12-2.12h0A2.11,2.11,0,0,1,263.27,132.79Z"/><path class="cls-10" d="M275.24,136.35h0a2.12,2.12,0,0,1,2.12,2.12h0a2.12,2.12,0,0,1-2.12,2.12h0a2.11,2.11,0,0,1-2.11-2.12h0A2.11,2.11,0,0,1,275.24,136.35Z"/><path class="cls-10" d="M287.21,143.49h0a2.12,2.12,0,0,1,2.12,2.12h0a2.12,2.12,0,0,1-2.12,2.12h0a2.12,2.12,0,0,1-2.11-2.12h0A2.12,2.12,0,0,1,287.21,143.49Z"/><path class="cls-10" d="M299.19,106h0a2.1,2.1,0,0,1,2.11,2.11h0a2.11,2.11,0,0,1-2.11,2.12h0a2.12,2.12,0,0,1-2.12-2.12h0A2.11,2.11,0,0,1,299.19,106Z"/><path class="cls-10" d="M311.16,100.66h0a2.12,2.12,0,0,1,2.12,2.12h0a2.12,2.12,0,0,1-2.12,2.12h0a2.12,2.12,0,0,1-2.12-2.12h0A2.12,2.12,0,0,1,311.16,100.66Z"/><path class="cls-10" d="M323.13,93.52h0a2.12,2.12,0,0,1,2.12,2.12h0a2.12,2.12,0,0,1-2.12,2.12h0A2.11,2.11,0,0,1,321,95.64h0A2.11,2.11,0,0,1,323.13,93.52Z"/><path class="cls-10" d="M335.11,100.66h0a2.12,2.12,0,0,1,2.11,2.12h0a2.12,2.12,0,0,1-2.11,2.12h0a2.12,2.12,0,0,1-2.12-2.12h0A2.12,2.12,0,0,1,335.11,100.66Z"/><path class="cls-10" d="M347.08,107.8h0a2.11,2.11,0,0,1,2.11,2.12h0a2.1,2.1,0,0,1-2.11,2.11h0a2.11,2.11,0,0,1-2.12-2.11h0A2.12,2.12,0,0,1,347.08,107.8Z"/><rect class="cls-11" x="359.89" y="27.95" width="7.82" height="250.89"/><rect class="cls-12" x="359.89" y="172.52" width="7.82" height="63.91"/><rect class="cls-4" x="64.93" y="27.95" width="302.79" height="15.36"/><rect class="cls-13" x="84.85" y="30.57" width="194.67" height="8.67"/><line class="cls-14" x1="80.14" y1="74.83" x2="107.96" y2="74.83"/><circle class="cls-14" cx="74.93" cy="74.64" r="2.62"/><line class="cls-14" x1="80.14" y1="91.59" x2="107.96" y2="91.59"/><circle class="cls-14" cx="74.93" cy="91.4" r="2.62"/><line class="cls-14" x1="80.14" y1="108.35" x2="107.96" y2="108.35"/><circle class="cls-14" cx="74.93" cy="108.16" r="2.62"/><line class="cls-14" x1="80.14" y1="125.11" x2="107.96" y2="125.11"/><path class="cls-14" d="M77.55,124.92a2.62,2.62,0,1,0-2.62,2.62A2.62,2.62,0,0,0,77.55,124.92Z"/><line class="cls-14" x1="80.14" y1="141.87" x2="107.96" y2="141.87"/><circle class="cls-14" cx="74.93" cy="141.68" r="2.62"/><path class="cls-8" d="M153.11,233.32l-18.26,17a25,25,0,0,1,1.23-35.29,24,24,0,0,1,17-6.71Z"/><path class="cls-1" d="M153.11,233.32l22.44-10.95a25,25,0,0,1-40.7,28Z"/><path class="cls-4" d="M153.11,233.32v-25a24.15,24.15,0,0,1,22.44,14Z"/><path class="cls-4" d="M129.93,60v.84c0,.64.28.88.73.88s.74-.24.74-.88v-2c0-.64-.29-.89-.74-.89s-.73.25-.73.89v.28h-1.34l.25-5.24h3.74v1.29h-2.46L130,57.36a1.35,1.35,0,0,1,1.23-.66c1,0,1.58.74,1.58,2.07v2a2,2,0,0,1-2.12,2.27c-1.39,0-2.11-.83-2.11-2.27V60Z"/><path class="cls-4" d="M134.64,55.05a1.4,1.4,0,0,0,1.56-1.13h1v9h-1.42V56.06h-1.09Z"/><path class="cls-4" d="M140.72,59.35l-.43.82V63h-1.42v-9h1.42v3.93l1.85-3.93h1.42l-2,4,2,5H142.1Z"/><line class="cls-14" x1="129.43" y1="49.06" x2="142.07" y2="49.06"/><path class="cls-4" d="M187.8,54v-.67H189V54a2,2,0,0,1,1.52,2.21v.28h-1.34v-.38c0-.64-.26-.88-.71-.88s-.71.24-.71.88c0,1.86,2.77,2,2.77,4.53A2,2,0,0,1,189,62.87v.66H187.8v-.66a2,2,0,0,1-1.54-2.22V60h1.34v.71c0,.65.29.88.74.88s.73-.23.73-.88c0-1.86-2.77-2-2.77-4.52A2,2,0,0,1,187.8,54Z"/><path class="cls-4" d="M192.72,60v.84c0,.64.29.88.74.88s.73-.24.73-.88v-2c0-.64-.28-.89-.73-.89s-.74.25-.74.89v.28h-1.34l.26-5.24h3.74v1.29h-2.46l-.12,2.15A1.37,1.37,0,0,1,194,56.7c1,0,1.57.74,1.57,2.07v2c0,1.44-.72,2.27-2.11,2.27a2,2,0,0,1-2.12-2.27V60Z"/><path class="cls-4" d="M197.43,55.05A1.4,1.4,0,0,0,199,53.92h1v9h-1.42V56.06h-1.1Z"/><path class="cls-4" d="M203.52,59.35l-.44.82V63h-1.42v-9h1.42v3.93l1.86-3.93h1.42l-2,4,2,5H204.9Z"/><line class="cls-14" x1="190.04" y1="49.06" x2="202.68" y2="49.06"/><path class="cls-4" d="M244.74,56.09a2.16,2.16,0,1,1,4.31,0v4.69a2.16,2.16,0,1,1-4.31,0Zm1.42,4.78c0,.64.28.89.74.89s.73-.25.73-.89V56c0-.65-.28-.89-.73-.89s-.74.24-.74.89Z"/><path class="cls-4" d="M251.33,61.58V63H250V61.58Z"/><path class="cls-4" d="M255.1,56.14c0-.81-.28-1-.74-1s-.73.24-.73.89v.58h-1.34v-.49c0-1.45.72-2.27,2.11-2.27s2.12.82,2.12,2.27v.23a1.77,1.77,0,0,1-1,1.86,1.84,1.84,0,0,1,1,1.89v.71a2,2,0,0,1-2.12,2.27c-1.39,0-2.11-.83-2.11-2.27V60h1.34v.84c0,.64.28.89.73.89s.74-.22.74-1V60c0-.84-.28-1.15-.93-1.15h-.48V57.59h.56c.53,0,.85-.23.85-1Z"/><path class="cls-4" d="M257.4,55.3a1.37,1.37,0,1,1,2.73,0v3a1.37,1.37,0,1,1-2.73,0Zm.9,3c0,.4.17.57.46.57s.47-.17.47-.57V55.24c0-.4-.18-.57-.47-.57s-.46.17-.46.57Zm4-4.41h.84l-3.56,9h-.84Zm-.45,4.68a1.37,1.37,0,1,1,2.73,0v3a1.37,1.37,0,1,1-2.73,0Zm.9,3c0,.4.17.57.47.57s.46-.17.46-.57V58.54c0-.4-.18-.57-.46-.57s-.47.17-.47.57Z"/><line class="cls-14" x1="248.35" y1="49.06" x2="260.99" y2="49.06"/><path class="cls-4" d="M129.93,184v.83c0,.65.28.88.73.88s.74-.23.74-.88v-2c0-.65-.29-.89-.74-.89s-.73.24-.73.89v.27h-1.34l.25-5.24h3.74v1.29h-2.46l-.11,2.16a1.33,1.33,0,0,1,1.23-.66c1,0,1.58.73,1.58,2.06v2A2,2,0,0,1,130.7,187c-1.39,0-2.11-.82-2.11-2.27V184Z"/><path class="cls-4" d="M134.64,179.05a1.41,1.41,0,0,0,1.56-1.14h1v9h-1.42v-6.89h-1.09Z"/><path class="cls-4" d="M140.72,183.34l-.43.83v2.77h-1.42v-9h1.42v3.94l1.85-3.94h1.42l-2,4,2,5H142.1Z"/><line class="cls-14" x1="129.43" y1="173.05" x2="142.07" y2="173.05"/><line class="cls-14" x1="127.98" y1="192.65" x2="143.71" y2="192.65"/><line class="cls-14" x1="127.98" y1="196.89" x2="143.71" y2="196.89"/><ellipse class="cls-1" cx="248.58" cy="374.92" rx="80" ry="17"/><ellipse class="cls-5" cx="248.58" cy="374.92" rx="80" ry="17"/><polygon class="cls-15" points="251.57 152.35 253.44 159.22 244.29 204.34 249.7 214.33 258.85 204.97 256.56 159.22 260.93 153.6 256.15 146.53 251.57 152.35"/><path class="cls-15" d="M236.13,358.61S219,369.41,219,372s6.33,0,15.65-4.47,12.14-4.37,7.75-9.64S236.13,358.61,236.13,358.61Z"/><path class="cls-15" d="M271.53,360.47s1.49,16,5.21,20.12,6.34-2.61,5.59-6.7-4.84-12.67-4.84-12.67S274.13,356.75,271.53,360.47Z"/><path class="cls-16" d="M228.3,209.19a324.68,324.68,0,0,0-2.23,36.14c0,18.63-2.24,34.66-1.49,43.23.65,7.53,7.93,57.72,9.68,69.71a4.08,4.08,0,0,0,2.87,3.32h0a4.09,4.09,0,0,0,5.26-3.68l4.17-72.34,5.59-42.85s4.47,55.15,6,64.47c1.27,7.93,10.11,44,12.7,54.49a6.27,6.27,0,0,0,4.47,4.65,2.76,2.76,0,0,0,.72.1c1,0,2-2.21,2.56-3.65a6.26,6.26,0,0,0,.42-2.27l.37-70.46.75-54s2.16-14.75,1.08-21.35S228.3,209.19,228.3,209.19Z"/><line class="cls-17" x1="251.03" y1="241.23" x2="239.48" y2="236.02"/><path class="cls-15" d="M187.55,170.53l-3.26-1.38c-5.11-1-6.78-7.43-6.78-7.43s-3.37,3-4.87,2.05,3.78-4.79,3.78-4.79-8.34,4.26-9.64,3.3,6.45-5.28,6.45-5.28-9.81,3.08-10.45,1.6,17.44-8,20.22-7.71,4.49,6.36,5.45,8.48,2.29,4.49,2.29,4.49l1.83,2.32,21,15.39s18.36-39.63,20.05-41.56,21-3.62,21-3.62l1.45-.24s5.07.24,11.11,1.2,23.68,10.15,23.68,10.15l-9.66,61.85v5.32a4.05,4.05,0,0,1-2.18,3.14c-1.21.72-49-4.35-49-4.35s-2.9-.24-3.15-1.69,2.18-21.5,2.18-21.5-7.25,8-9.42,8.21c-1.88.21-23.19-19.49-30.89-26.74Z"/><path class="cls-15" d="M279,217.81a4.05,4.05,0,0,0,2.18-3.14v-5.32l9.66-61.85s-17.64-9.18-23.68-10.15-11.11-1.2-11.11-1.2l-1.45.24s-19.33,1.69-21,3.62c-1.45,1.65-15.05,30.79-19,39.26L223,196.18c2.78-2.43,6-5.91,6-5.91s-2.42,20-2.18,21.5,3.15,1.69,3.15,1.69S277.79,218.53,279,217.81Z"/><line class="cls-3" x1="228.99" y1="190.27" x2="234.73" y2="154.22"/><path class="cls-15" d="M213.53,181.57s7.05,14.68,7.05,16,3,1,3,1,4.67-3.34,4.33-7-10-19-10-19S212.14,175.22,213.53,181.57Z"/><path class="cls-16" d="M158.07,149.28l34.73,3.23c1.46.14,2.58,1,2.48,1.88h0c-.11.9-1.42,1.48-2.88,1.26l-34.5-5.06c-.57-.08-1-.42-1-.77h0C157,149.46,157.49,149.22,158.07,149.28Z"/><path class="cls-15" d="M185.79,161.48s-3.07-8.21-4.06-8.32-12.84-2.1-13.33-1.35-1.2,1.67-.08,2.4,8.66,3.42,8.66,3.42,0,6.65,5.05,8.44"/><path class="cls-15" d="M182.89,151s-2.45-3.09-5.17-2.95-10.14.73-7.46,1.82S182.89,151,182.89,151Z"/><path class="cls-15" d="M257,132.28s-3.39,1.45-3.87,3.62-1.45,11.36-3.62,14.26a16.22,16.22,0,0,0-2.66,4.59l8.7-2.9L265.23,163a56.33,56.33,0,0,1,4.83-13c3.14-5.56,5.32-7,5.32-11.6s-5.8-6.76-7.49-7S257,132.28,257,132.28Z"/><path class="cls-15" d="M244.94,96.52s-1.45,5.56-.49,6.77,1.69,3.86.73,5.31-3.39,4.11-3.14,4.83,4.1,2.66,4.1,2.66.24,11.12,2.18,11.84,7,.48,7,.48l.25,23.44,15.7-15.7-.48-15.71s4.83-2.42,6-4.59-.73-7-.73-7-.48-11.11-.48-12.32a8.24,8.24,0,0,0-8.22-7.73C260.4,88.55,244.94,96.52,244.94,96.52Z"/><path class="cls-4" d="M251.22,107c0,.87-.44,1.57-1,1.57s-1-.7-1-1.57.44-1.57,1-1.57S251.22,106.16,251.22,107Z"/><path class="cls-3" d="M248.08,104.49s2.41-2.17,5.07.73"/><path class="cls-3" d="M255.32,128.41s8-1.69,10.88-5.79"/><path class="cls-16" d="M266.2,94.11s-19.82,4.59-23.92,4.1-7.25-8.7-3.87-12.8S257.5,79.13,265,81.3s17.64,7.49,16.91,10.87-5.8,16.67-5.8,16.67-4.1-2.17-5.31.25a16.43,16.43,0,0,0-1.45,3.62s-.73,1.69-1.69,0-1-3.38-2.9-6.28-5.32-6-3.87-7.49S266.2,94.11,266.2,94.11Z"/><polygon class="cls-18" points="214.59 179.27 230.25 207.25 256.58 209.25 242.25 179.92 214.59 179.27"/><path class="cls-15" d="M277.58,163.92l6,33.67,19.33,4s-5-48-6.33-51-10-5.34-11-5.34"/><path class="cls-15" d="M278.91,196.92s1.67-8.33,5.67-9,15.67-1.33,18.33,5,3,10,1,12.33-7,.67-14.66-1.66S278.91,196.92,278.91,196.92Z"/><path class="cls-15" d="M261.36,194.13l-13-3.62-13,6.52s-1.69,1-.72,1.93,2.65.25,2.65.25-1,1.45,0,2.17,6.53-1,6.53-1-5.32,3.63-3.63,4.35,9.43-3.14,9.43-3.14l-4.34,3.72a.7.7,0,0,0,.18,1.18,2,2,0,0,0,1.31.15c1.69-.24,7.71-4.77,7.71-4.77l9.15,0s32.13,6.77,36.48,6.53,5.08-8.22,2.18-11.84-9.67-3.14-11.36-3.14S261.36,194.13,261.36,194.13Z"/><line class="cls-3" x1="237.2" y1="199.21" x2="243.73" y2="196.79"/><line class="cls-15" x1="243.73" y1="200.41" x2="246.87" y2="199.21"/><polygon class="cls-15" points="222.46 179.8 224.95 183.55 235.14 183.96 232.65 180.01 222.46 179.8"/></g></g></svg>