<svg xmlns="http://www.w3.org/2000/svg" viewBox="0 0 1005.54 192.82"><defs><style>.cls-1{fill:#f8b500;stroke:#f8b500;stroke-miterlimit:10;stroke-width:3px;}.cls-2{fill:#fff;}</style></defs><title>Asset 2</title><g id="Layer_2" data-name="Layer 2"><g id="Layer_1-2" data-name="Layer 1"><path class="cls-1" d="M1.56,16.62C.77,8.52,8.39.89,16.48,1.62,25.7,1.75,32.68,12.5,28.92,21c-1.83,5.15-6.77,8.31-12,9.21,0,8.33,0,16.67,0,25,4.89.91,9.82,3.63,11.7,8.48,2.37,5,1.28,10.91-1.95,15.23Q43.44,95.69,60.2,112.47a14.79,14.79,0,0,1,18.55,0q16.78-16.77,33.54-33.56c-1.65-2.55-3.12-5.34-3.21-8.45-.82-7.92,6.42-15.53,14.37-15.11,7.87-.19,14.65,7.47,13.94,15.23-.08,3.06-1.63,5.78-3.2,8.3,11.16,11.23,22.39,22.37,33.55,33.6,4.91-3.88,12.47-4.82,17.5-.66,6,4.12,7.86,13.14,3.64,19.17-2.18,3.91-6.49,5.8-10.67,6.71q0,12.49,0,25c4.9.94,9.81,3.65,11.7,8.52a14.12,14.12,0,0,1-6.41,18.36c-7,4.25-16.93.2-19.69-7.31a14.29,14.29,0,0,1,3.64-15.8c2.29-2.15,5.39-3,8.36-3.78q0-12.48,0-25c-4.5-.86-9-3.11-11.11-7.39-3.17-5.15-2-11.74,1.35-16.47-11.29-11-22.28-22.35-33.52-33.42a15,15,0,0,1-18.58,0Q97.23,97.24,80.44,114c5.34,6.6,3.82,17.57-3.94,21.58-7.31,4.82-18.13.39-20.5-7.88-1.66-4.68-.26-9.75,2.53-13.69Q41.81,97.19,25,80.44c-4.36,3.17-10.4,4.63-15.35,1.9-7.33-3.15-10.4-13-6.36-19.78,2.18-4.24,6.7-6.5,11.21-7.36,0-8.36.12-16.72-.08-25.08A14.55,14.55,0,0,1,1.56,16.62Z"/><path class="cls-1" d="M66.71,1.84c8.71-2.06,17.61,5.9,16.94,14.71-.2,7.35-6.93,13.46-14.17,13.5-6.86,0-13.37-5.51-14-12.44C54.18,10.44,59.7,3.18,66.71,1.84Zm.21,2.31A11.89,11.89,0,0,0,59.38,9.5c-3.29,5.06-1.71,12.43,3.15,15.91,2.93,2.23,6.9,2.52,10.38,1.69a11.87,11.87,0,0,0-6-23Z"/><path class="cls-1" d="M118.85,2.22c8.32-3,17.87,3.59,18.5,12.27,1,8-6,15.43-13.89,15.56-7,.12-13.65-5.49-14.28-12.54C108.07,10.89,112.7,4.35,118.85,2.22Zm2,1.88a11.84,11.84,0,0,0-9.41,10.36c-.91,6.77,5,13.65,12,13.05,7.1.33,13-7.13,11.38-14A11.86,11.86,0,0,0,120.88,4.1Z"/><path class="cls-1" d="M172.89,2.13c8.26-2.73,17.55,3.76,18.22,12.3,1,7.92-5.85,15.39-13.69,15.62-7.06.24-13.87-5.47-14.49-12.59C161.83,10.76,166.6,4.13,172.89,2.13Zm2,1.94a11.91,11.91,0,0,0-9.26,8.43c-1.9,6.3,2.4,13.85,9,14.84A11.89,11.89,0,0,0,188.5,18.6C190.75,10.65,182.94,2.21,174.84,4.07Z"/><path class="cls-1" d="M65.64,55.82c9-2.88,18.87,5.37,18,14.68C83.31,79.07,74,85.81,65.75,83.26a14.34,14.34,0,0,1-10.4-12.63C54.56,64,59.42,57.65,65.64,55.82Zm1.24,2.34a11.88,11.88,0,0,0-7.87,6c-2.88,5-1,12,3.78,15.18a12.47,12.47,0,0,0,9.95,1.56c6.09-1.52,10.1-8.64,8-14.62A11.84,11.84,0,0,0,66.88,58.16Z"/><path class="cls-1" d="M171.89,56.22c7.2-2.92,15.92,1.26,18.42,8.53C193,71.59,189.25,80,182.4,82.61c-8.05,3.93-18.59-2.3-19.43-11.12C161.77,65,166,58.67,171.89,56.22Zm2.94,1.85a11.84,11.84,0,0,0-9.63,10.6C164.61,75,170,81.45,176.51,81.25c6.84.7,13-5.88,12.25-12.62C188.3,61.93,181.42,56.63,174.83,58.07Z"/><path class="cls-1" d="M10,110.24c8-3.81,18.2,1.72,19.67,10.34,1.85,7.82-4.33,15.84-12.12,16.86-7.62,1.09-15.4-5.08-15.88-12.81C.77,118.6,4.67,112.83,10,110.24ZM12.83,112A11.75,11.75,0,0,0,3.9,123.55C4,129.62,9.26,135.31,15.49,135c7.42.61,13.73-7.31,11.69-14.4C25.81,114.45,18.94,110.23,12.83,112Z"/><path class="cls-1" d="M118.71,109.76c8.16-3,17.63,3.19,18.58,11.71,1.28,7.75-5.07,15.28-12.74,16-7.51.82-15-5.34-15.42-12.93C108.27,118.11,112.79,111.92,118.71,109.76Zm1.21,2.35a11.72,11.72,0,0,0-8.5,11.54c.09,6.19,5.65,11.87,12,11.37,7.26.37,13.28-7.48,11.27-14.4C133.31,114.29,126.09,110.06,119.92,112.11Z"/><path class="cls-1" d="M12.87,163.1c9-2.19,18.19,6.35,17,15.43-.63,8.53-10.26,15-18.35,12.07a14.24,14.24,0,0,1-9.84-12C.54,171.55,6,164.46,12.87,163.1Zm-1.06,3a11.7,11.7,0,0,0-7.9,11.53c.21,6,5.47,11.48,11.61,11.18,7.5.6,13.85-7.52,11.59-14.65C25.56,167.68,18,163.62,11.81,166.06Z"/><path class="cls-1" d="M66,163.22c9.15-2.65,18.87,6,17.56,15.34C83,187,73.51,193.4,65.46,190.67a14.25,14.25,0,0,1-10-12C54.31,171.74,59.43,164.92,66,163.22Zm-.2,2.74a11.73,11.73,0,0,0-8.15,11.68c.23,6,5.63,11.55,11.82,11.13,7.67.51,13.92-8.12,11.19-15.25A11.82,11.82,0,0,0,65.82,166Z"/><path class="cls-1" d="M120,163.17c9.13-2.49,18.66,6.15,17.35,15.43-.65,8.69-10.66,15.13-18.78,11.83a14.22,14.22,0,0,1-9.48-12.86C108.56,171,113.68,164.71,120,163.17Zm-1.09,3.05a11.62,11.62,0,0,0-7.46,11.4c.19,6.11,5.74,11.64,12,11.15,7.57.39,13.69-8.1,11.06-15.16C132.65,167.28,125,163.55,118.89,166.22Z"/><path class="cls-2" d="M332.58,82.84l-8.75,5.47q-11.34-15.15-30.94-15.16-15.7,0-26.06,10.08a33,33,0,0,0-10.35,24.53,35,35,0,0,0,4.77,17.7,33.08,33.08,0,0,0,13,12.85,38.14,38.14,0,0,0,18.6,4.53q19,0,30.94-15l8.75,5.71a41.23,41.23,0,0,1-16.53,14.25,53.31,53.31,0,0,1-23.63,5q-20.24,0-33.63-12.89a41.84,41.84,0,0,1-13.4-31.33,44.82,44.82,0,0,1,6.29-23.16,44.27,44.27,0,0,1,17.19-16.64,50,50,0,0,1,24.49-6,52.52,52.52,0,0,1,16.36,2.58,45.63,45.63,0,0,1,13.48,6.76A36.34,36.34,0,0,1,332.58,82.84Z"/><path class="cls-2" d="M353.59,34.09h11.1V82.61A46.36,46.36,0,0,1,379.33,69.4,35.78,35.78,0,0,1,396.72,65a30.48,30.48,0,0,1,17.11,4.88A29,29,0,0,1,424.76,83q3.53,8.2,3.52,25.86v44.06H417.34V112.06q0-14.84-1.25-19.84-2-8.52-7.42-12.78t-14.14-4.25a27.28,27.28,0,0,0-17.93,6.6,30.79,30.79,0,0,0-10.43,16.36q-1.49,6.25-1.48,23.36v31.41h-11.1Z"/><path class="cls-2" d="M492.26,62.84q19.77,0,32.82,14.3a44.21,44.21,0,0,1,12,31q.15,44.39,0,45.08H525.47V133.78q-9.15,17-33.21,19.06-19.68,0-32.14-13.4a46,46,0,0,1-.67-62.22Q472.5,62.83,492.26,62.84Zm0,10.78a31.61,31.61,0,0,0-23.51,10.16,34,34,0,0,0-9.85,24.53,35.16,35.16,0,0,0,4.5,17.38,31.51,31.51,0,0,0,12.14,12.43,33.37,33.37,0,0,0,16.72,4.33q29.3-3,32.89-34.14a34.39,34.39,0,0,0-9.61-24.53A30.86,30.86,0,0,0,492.26,73.62Z"/><path class="cls-2" d="M554.29,113.55V103.23a46.69,46.69,0,0,1,3.6-12.58Q563.35,77.22,572.58,71t15.31-6.25a19.58,19.58,0,0,1,9.69,3l-5.71,9.21q-7.26-2.66-14.41,4.3a37.82,37.82,0,0,0-9.88,15.16q-2,7.26-2,27.26v29H554.29Z"/><path class="cls-2" d="M641.25,149.8q-8.6,3.27-15.31,3-12.66-.71-20-13.12a29.78,29.78,0,0,1-4.3-17.19v-89h11.09V75h20.39V84.4H612.81v36.25q2,17,9.06,20.71,7.82,3.67,15.94-.71Q639.93,146.51,641.25,149.8Z"/><path class="cls-2" d="M701.72,34.09h11.09V82.61A46.49,46.49,0,0,1,727.46,69.4,35.74,35.74,0,0,1,744.84,65,30.46,30.46,0,0,1,762,69.91,29.07,29.07,0,0,1,772.89,83q3.51,8.2,3.51,25.86v44.06H765.47V112.06q0-14.84-1.25-19.84-2-8.52-7.43-12.78t-14.14-4.25a27.3,27.3,0,0,0-17.93,6.6,30.85,30.85,0,0,0-10.43,16.36q-1.49,6.25-1.48,23.36v31.41H701.72Z"/><path class="cls-2" d="M803.75,31.83a8.83,8.83,0,0,1,6.44,2.65,8.67,8.67,0,0,1,2.7,6.41A9.22,9.22,0,0,1,803.75,50a8.67,8.67,0,0,1-6.41-2.7,8.83,8.83,0,0,1-2.65-6.44,9,9,0,0,1,9.06-9.06Zm-5.47,35.23h11v85.7h-11Z"/><path class="cls-2" d="M824,67.22H835.7l28.67,62.34,28.44-62.34h11.8l-39.22,85.7h-1.95Z"/><path class="cls-2" d="M993.51,122.3l9.22,4.92a48.07,48.07,0,0,1-10.47,14.45A42.14,42.14,0,0,1,978.75,150a47.46,47.46,0,0,1-17,2.85q-20.92,0-32.73-13.71t-11.8-31a45.82,45.82,0,0,1,10-29.06q12.66-16.24,34-16.25,21.79,0,34.92,16.64,9.3,11.73,9.37,29.22H928.59q.31,15,9.53,24.57a30.34,30.34,0,0,0,22.74,9.57,36.24,36.24,0,0,0,12.73-2.3,34.16,34.16,0,0,0,10.51-6.06Q988.44,130.73,993.51,122.3Zm0-23q-2.19-8.84-6.4-14.1a30.57,30.57,0,0,0-11.17-8.52,34.22,34.22,0,0,0-14.61-3.24,31.33,31.33,0,0,0-21.64,8.12q-6.57,5.94-9.93,17.74Z"/></g></g></svg>